<svg xmlns="http://www.w3.org/2000/svg" width="176" height="88" viewBox="0 0 176 88">
  <g id="Group_211" data-name="Group 211" transform="translate(-412 -931)">
    <path id="Icon_awesome-bone" data-name="Icon awesome-bone" d="M164.887,47.981c6.921-3.46,11-11.263,11-19v-2c0-11.285-9.715-20-21-20a19.987,19.987,0,0,0-19,14c-2.109,6.325-2.719,12-10,12h-76c-7.52,0-8.207-6.617-10-12a19.987,19.987,0,0,0-19-14c-11.285,0-21,8.715-21,20v2c0,7.737,4.079,15.54,11,19a3.288,3.288,0,0,1,0,6,19.759,19.759,0,0,0-11,18v2a21.416,21.416,0,0,0,21,21,19.987,19.987,0,0,0,19-14c2.109-6.325,2.719-13,10-13h76c7.52,0,8.207,7.617,10,13a19.989,19.989,0,0,0,19,14,21.416,21.416,0,0,0,21-21v-2a19.756,19.756,0,0,0-11-18A3.289,3.289,0,0,1,164.887,47.981Z" transform="translate(412.113 924.019)" fill="#a46c5d"/>
    <g id="Group_98" data-name="Group 98" transform="translate(-59.653 566.109)">
      <rect id="Rectangle_460" data-name="Rectangle 460" width="32" height="31" transform="translate(543.653 392.891)" fill="none"/>
      <path id="Checkbox" d="M10.98,18.895l-11-11,2-2,9,9,15-15,2,2Z" transform="translate(545.673 398.996)" fill="#fffcf5"/>
    </g>
  </g>
</svg>


