<svg id="Zaloguj_button_mobile" xmlns="http://www.w3.org/2000/svg" width="168.711" height="84.355" viewBox="0 0 168.711 84.355">
  <path id="Icon_awesome-bone" data-name="Icon awesome-bone" d="M157.871,45.912a19.61,19.61,0,0,0,10.84-17.538V26.36a19.61,19.61,0,0,0-38.213-6.2c-2.025,6.071-3.058,11.9-10.046,11.9h-72.2c-7.218,0-8.325-6.733-10.046-11.9A19.608,19.608,0,0,0,0,26.36v2.014A19.61,19.61,0,0,0,10.84,45.912a3.371,3.371,0,0,1,0,6.031A19.61,19.61,0,0,0,0,69.481V71.5a19.608,19.608,0,0,0,38.21,6.2c2.025-6.071,3.058-11.9,10.046-11.9h72.2c7.218,0,8.325,6.733,10.046,11.9a19.608,19.608,0,0,0,38.21-6.2V69.481a19.607,19.607,0,0,0-10.84-17.538A3.372,3.372,0,0,1,157.871,45.912Z" transform="translate(0 -6.75)" fill="#a46c5d"/>
  <text id="ZALOGUJ" transform="translate(49.855 47.678)" fill="#fffcf5" font-size="15" font-family="ArialMT, Arial"><tspan x="0" y="0">ZALOGUJ</tspan></text>
</svg>
